<?xml version="1.0" encoding="utf-8"?>
<!-- Generator: Adobe Illustrator 22.0.0, SVG Export Plug-In . SVG Version: 6.00 Build 0)  -->
<svg version="1.1" id="Asymil8_x5F_Yuno_x5F_Final" xmlns="http://www.w3.org/2000/svg" xmlns:xlink="http://www.w3.org/1999/xlink"
	 x="0px" y="0px" viewBox="0 0 1200 520" style="enable-background:new 0 0 1200 520;" xml:space="preserve">
<style type="text/css">
	.st0{display:none;}
	.st1{display:inline;}
	.st2{display:inline;clip-path:url(#XMLID_6_);fill:url(#SVGID_1_);}
</style>
<g id="Black_-_Flat">
	<defs>
		<path id="XMLID_1_" d="M1040.5,8.4C940.1,8.4,886,86.7,886,160.2v0.5c0,74.6,54.1,152.9,154.5,152.9
			c100.4,0,154.5-78.3,154.5-152.9C1195,86.7,1140.9,8.4,1040.5,8.4z M1040.5,249.1c-47.3,0-85.7-37.3-85.7-87.8v-0.5
			c0-51,38.4-88.3,85.7-88.3c47.3,0,85.1,37.3,85.1,88.3C1125.6,211.8,1087.8,249.1,1040.5,249.1z M873.9,314.5V161h0v-0.3
			C874,86.7,819.8,8.4,719.4,8.4c-53.6,0-93.9,22.3-120,54.3c-12.5,15.3-21.9,33.1-27.6,52c-7.9,25.8-3.3,54.5-12.9,79.7
			c-7.5,19.8-23.4,37.7-42.6,46.8c-11.1,5.2-24.5,8-36.8,8c-47.3,0-85.6-37.2-85.7-87.6V6.3H325v155.1c0.2,37.2,13.8,75.3,39.8,104
			c26.1,28.8,64.6,48.2,114.7,48.2c53.5,0,93.9-22.3,120-54.4c23-28.4,29.8-61.3,33.4-96.7c3.1-30.2,12.8-59,39.3-76.5
			c13.3-8.8,31.3-13.6,47.2-13.6c46.9,0,84.5,36.7,85.1,87v155.1H873.9z M312.4,202.7c0,38.9-0.2,77.8-0.1,116.8
			c0.1,12,0,24.1-0.5,36c-1.6,37.4-8,73.7-32.9,104.5c-26,32.1-66.3,54.3-119.7,54.3C59.1,514.2,5.1,436.3,5,361.8h68.7v0.3
			c0,50.4,38.3,87.6,85.5,87.6c25.6,0,50.3-11.5,66-31.8c18.6-24,17.2-50.1,17.7-79.1c0.2-10.2,0.3-27.7,0.3-49.8
			c-22.5,13.6-50.1,21.8-82.6,21.8c-49.9,0-88.4-19.4-114.4-48.1C20.2,234.1,6.6,196.1,6.4,159V6.2h68.7V159
			c0.1,50.3,38.3,87.5,85.5,87.5c12.3,0,25.6-2.8,36.7-8c21.6-10.2,41.7-33,45.6-57.1c0.1-0.3,0.1-0.6,0.1-0.9
			c1.4-9.8,1.2-22.4,1.1-33.2c-0.3-22.5,0-45,0-67.4c0-24.7,0-49.3,0-74h68.2v25.4c0,47.6,0,105.4,0,140.4V202.7z"/>
	</defs>
	<use xlink:href="#XMLID_1_"  style="overflow:visible;fill:#FFFFFF;"/>
	<clipPath id="XMLID_4_">
		<use xlink:href="#XMLID_1_"  style="overflow:visible;"/>
	</clipPath>
</g>
<g id="Colour_-_Flat_1_" class="st0">
	<defs>
		<path id="XMLID_2_" d="M1040.5,8.4C940.1,8.4,886,86.7,886,160.2v0.5c0,74.6,54.1,152.9,154.5,152.9
			c100.4,0,154.5-78.3,154.5-152.9C1195,86.7,1140.9,8.4,1040.5,8.4z M1040.5,249.1c-47.3,0-85.7-37.3-85.7-87.8v-0.5
			c0-51,38.4-88.3,85.7-88.3c47.3,0,85.1,37.3,85.1,88.3C1125.6,211.8,1087.8,249.1,1040.5,249.1z M873.9,314.5V161h0v-0.3
			C874,86.7,819.8,8.4,719.4,8.4c-53.6,0-93.9,22.3-120,54.3c-12.5,15.3-21.9,33.1-27.6,52c-7.9,25.8-3.3,54.5-12.9,79.7
			c-7.5,19.8-23.4,37.7-42.6,46.8c-11.1,5.2-24.5,8-36.8,8c-47.3,0-85.6-37.2-85.7-87.6V6.3H325v155.1c0.2,37.2,13.8,75.3,39.8,104
			c26.1,28.8,64.6,48.2,114.7,48.2c53.5,0,93.9-22.3,120-54.4c23-28.4,29.8-61.3,33.4-96.7c3.1-30.2,12.8-59,39.3-76.5
			c13.3-8.8,31.3-13.6,47.2-13.6c46.9,0,84.5,36.7,85.1,87v155.1H873.9z M312.4,202.7c0,38.9-0.2,77.8-0.1,116.8
			c0.1,12,0,24.1-0.5,36c-1.6,37.4-8,73.7-32.9,104.5c-26,32.1-66.3,54.3-119.7,54.3C59.1,514.2,5.1,436.3,5,361.8h68.7v0.3
			c0,50.4,38.3,87.6,85.5,87.6c25.6,0,50.3-11.5,66-31.8c18.6-24,17.2-50.1,17.7-79.1c0.2-10.2,0.3-27.7,0.3-49.8
			c-22.5,13.6-50.1,21.8-82.6,21.8c-49.9,0-88.4-19.4-114.4-48.1C20.2,234.1,6.6,196.1,6.4,159V6.2h68.7V159
			c0.1,50.3,38.3,87.5,85.5,87.5c12.3,0,25.6-2.8,36.7-8c21.6-10.2,41.7-33,45.6-57.1c0.1-0.3,0.1-0.6,0.1-0.9
			c1.4-9.8,1.2-22.4,1.1-33.2c-0.3-22.5,0-45,0-67.4c0-24.7,0-49.3,0-74h68.2v25.4c0,47.6,0,105.4,0,140.4V202.7z"/>
	</defs>
	<use xlink:href="#XMLID_2_"  style="display:inline;overflow:visible;fill:#27AAE1;"/>
	<clipPath id="XMLID_5_" class="st1">
		<use xlink:href="#XMLID_2_"  style="overflow:visible;"/>
	</clipPath>
</g>
<g id="Colour_with_Effect" class="st0">
	<defs>
		<path id="XMLID_7_" d="M1040.5,8.4C940.1,8.4,886,86.7,886,160.2v0.5c0,74.6,54.1,152.9,154.5,152.9
			c100.4,0,154.5-78.3,154.5-152.9C1195,86.7,1140.9,8.4,1040.5,8.4z M1040.5,249.1c-47.3,0-85.7-37.3-85.7-87.8v-0.5
			c0-51,38.4-88.3,85.7-88.3c47.3,0,85.1,37.3,85.1,88.3C1125.6,211.8,1087.8,249.1,1040.5,249.1z M873.9,314.5V161h0v-0.3
			C874,86.7,819.8,8.4,719.4,8.4c-53.6,0-93.9,22.3-120,54.3c-12.5,15.3-21.9,33.1-27.6,52c-7.9,25.8-3.3,54.5-12.9,79.7
			c-7.5,19.8-23.4,37.7-42.6,46.8c-11.1,5.2-24.5,8-36.8,8c-47.3,0-85.6-37.2-85.7-87.6V6.3H325v155.1c0.2,37.2,13.8,75.3,39.8,104
			c26.1,28.8,64.6,48.2,114.7,48.2c53.5,0,93.9-22.3,120-54.4c23-28.4,29.8-61.3,33.4-96.7c3.1-30.2,12.8-59,39.3-76.5
			c13.3-8.8,31.3-13.6,47.2-13.6c46.9,0,84.5,36.7,85.1,87v155.1H873.9z M312.4,202.7c0,38.9-0.2,77.8-0.1,116.8
			c0.1,12,0,24.1-0.5,36c-1.6,37.4-8,73.7-32.9,104.5c-26,32.1-66.3,54.3-119.7,54.3C59.1,514.2,5.1,436.3,5,361.8h68.7v0.3
			c0,50.4,38.3,87.6,85.5,87.6c25.6,0,50.3-11.5,66-31.8c18.6-24,17.2-50.1,17.7-79.1c0.2-10.2,0.3-27.7,0.3-49.8
			c-22.5,13.6-50.1,21.8-82.6,21.8c-49.9,0-88.4-19.4-114.4-48.1C20.2,234.1,6.6,196.1,6.4,159V6.2h68.7V159
			c0.1,50.3,38.3,87.5,85.5,87.5c12.3,0,25.6-2.8,36.7-8c21.6-10.2,41.7-33,45.6-57.1c0.1-0.3,0.1-0.6,0.1-0.9
			c1.4-9.8,1.2-22.4,1.1-33.2c-0.3-22.5,0-45,0-67.4c0-24.7,0-49.3,0-74h68.2v25.4c0,47.6,0,105.4,0,140.4V202.7z"/>
	</defs>
	<use xlink:href="#XMLID_7_"  style="display:inline;overflow:visible;fill:#27AAE1;"/>
	<clipPath id="XMLID_6_" class="st1">
		<use xlink:href="#XMLID_7_"  style="overflow:visible;"/>
	</clipPath>
	<radialGradient id="SVGID_1_" cx="600" cy="535.1501" r="680.4753" gradientUnits="userSpaceOnUse">
		<stop  offset="0" style="stop-color:#FFFFFF"/>
		<stop  offset="1" style="stop-color:#000000"/>
	</radialGradient>
	<ellipse class="st2" cx="600" cy="535.2" rx="865.8" ry="420.2"/>
</g>
</svg>
